PathFileType	4	(X/Y/Z)	..\data\2014007\dynamic\2014007_C4_04.trc
DataRate	CameraRate	NumFrames	NumMarkers	Units	OrigDataRate	OrigDataStartFrame	OrigNumFrames
100.000000	100.000000	4	52	mm	100.000000	47	188
Frame#	Time	L_IAS			L_IPS			R_IPS			R_IAS			L_FTC			L_FLE			L_FME			L_FAX			L_TTC			L_FAL			L_TAM			L_FCC			L_FM1			L_FM2			L_FM5			R_FTC			R_FLE			R_FME			R_FAX			R_TTC			R_FAL			R_TAM			R_FCC			R_FM1			R_FM2			R_FM5			CV7			TV10			SXS			SJN			L_SIA			L_SRS			L_SAA			L_SAE			L_HLE			L_HME			L_UOA			L_RSP			L_UHE			L_HM2			L_HM5			R_SIA			R_SRS			R_SAA			R_SAE			R_HLE			R_HME			R_UOA			R_RSP			R_UHE			R_HM2			R_HM5			
		X1	Y1	Z1	X2	Y2	Z2	X3	Y3	Z3	X4	Y4	Z4	X5	Y5	Z5	X6	Y6	Z6	X7	Y7	Z7	X8	Y8	Z8	X9	Y9	Z9	X10	Y10	Z10	X11	Y11	Z11	X12	Y12	Z12	X13	Y13	Z13	X14	Y14	Z14	X15	Y15	Z15	X16	Y16	Z16	X17	Y17	Z17	X18	Y18	Z18	X19	Y19	Z19	X20	Y20	Z20	X21	Y21	Z21	X22	Y22	Z22	X23	Y23	Z23	X24	Y24	Z24	X25	Y25	Z25	X26	Y26	Z26	X27	Y27	Z27	X28	Y28	Z28	X29	Y29	Z29	X30	Y30	Z30	X31	Y31	Z31	X32	Y32	Z32	X33	Y33	Z33	X34	Y34	Z34	X35	Y35	Z35	X36	Y36	Z36	X37	Y37	Z37	X38	Y38	Z38	X39	Y39	Z39	X40	Y40	Z40	X41	Y41	Z41	X42	Y42	Z42	X43	Y43	Z43	X44	Y44	Z44	X45	Y45	Z45	X46	Y46	Z46	X47	Y47	Z47	X48	Y48	Z48	X49	Y49	Z49	X50	Y50	Z50	X51	Y51	Z51	X52	Y52	Z52	

48	0.47	-553.9916992187501	922.2800903320315	182.061782836914	-755.0172119140626	994.0984497070315	255.1531829833984	-753.5086059570314	1002.506469726563	335.3819274902343	-567.1809692382814	942.531188964844	436.9830932617188	-606.7458496093751	896.3022460937502	114.1628112792968	-483.4550170898439	486.8212890625001	153.0064392089843	-475.3989257812502	469.1756896972657	274.4293823242188	-500.9204101562501	421.9486389160157	150.9846496582031	-449.1549377441407	410.481903076172	206.0541839599609	-550.9686279296876	82.21634674072267	186.7047271728515	-526.3283081054689	102.7991104125977	265.6517639160156	-598.6047973632814	46.82659149169923	240.9479064941406	-414.5076599121095	42.73180007934571	253.6692352294922	-417.6140441894532	56.38766098022462	205.0649871826172	-449.6447753906251	35.81678009033204	166.7122497558593	-637.4920654296877	887.0863037109377	492.7450866699219	-664.1770629882814	472.3774414062501	416.8318176269532	-678.8417968750001	477.9516601562501	283.5126342773438	-696.7852783203126	408.020233154297	413.1624755859375	-639.0060424804689	400.318817138672	358.4939270019531	-752.5386352539064	61.08108520507814	359.3328552246093	-733.9240722656251	84.66936492919923	275.8963928222656	-803.215759277344	29.80206871032716	304.0580444335937	-615.8732299804689	25.49737930297852	283.1938781738281	-607.5292358398439	39.61153411865235	335.6088562011719	-650.0017089843751	24.05609512329102	384.7622375488282	-702.0930786132814	1444.021606445313	287.9046630859374	-757.7041625976564	1206.59619140625	302.4103698730468	-579.9891967773439	1359.716430664063	281.9704895019531	-509.7168579101564	1187.635009765625	285.0653991699219	-774.0988769531252	1223.301513671875	208.7561950683593	-748.4627685546876	1363.325927734375	208.0758972167968	-722.0221557617189	1365.836669921875	135.7817230224609	-672.1370239257814	1368.432739257813	104.4788970947265	-759.7434692382814	1056.45361328125	65.2498245239257	-771.1270141601565	1049.321899414063	146.4520721435546	-788.4968261718752	1046.388549804688	98.22451782226555	-708.6416625976564	803.375915527344	83.83947753906243	-764.4078369140626	813.6794433593752	29.02711105346671	-701.2117309570314	710.1846923828126	71.82602691650384	-791.5455322265627	733.7368774414064	33.95075988769522	-768.3728027343752	1234.227661132813	399.7197570800781	-739.9846191406251	1363.06982421875	392.5796203613281	-689.1018676757814	1384.274658203125	456.3188476562501	-645.2744750976565	1387.921142578125	474.5974426269532	-636.0596923828127	1076.00048828125	578.1748657226562	-681.0633544921877	1056.297729492188	506.2048645019532	-674.703063964844	1042.168701171875	559.003662109375	-490.3812866210939	857.478454589844	539.4374389648438	-532.6439208984377	851.297302246094	606.6256713867188	-446.9036254882814	785.9730224609377	542.9281005859376	-514.546081542969	777.967956542969	616.7003173828125	
49	0.48	-545.1822509765626	921.1081542968752	182.0602722167968	-746.4600219726564	993.1022949218752	254.5851135253906	-745.3261718750001	1001.572265625	334.7311706542968	-559.3249511718751	941.2195434570315	437.1027832031251	-597.6907348632814	895.098327636719	114.0211715698242	-474.5401306152345	485.7603759765626	154.95849609375	-467.6504211425783	467.9283447265626	276.5517578125	-489.5233459472657	420.5737609863282	152.6498565673828	-436.9336547851564	411.2525024414064	207.7225189208984	-520.7805175781251	78.52474975585939	186.9975891113281	-497.0334472656252	100.1826171875	265.8499755859375	-566.5357055664064	40.69859313964844	241.095703125	-382.2537841796876	45.4695167541504	253.4906616210938	-385.9302673339845	59.043270111084	204.9850311279297	-417.3243103027345	37.00348281860352	166.5765228271484	-630.0103759765627	886.2128906250002	492.5995788574219	-660.2810668945314	471.9378662109376	416.7036437988282	-674.8594970703126	477.7205810546876	283.3660888671875	-693.5121459960939	407.8458557128907	413.0032653808594	-635.8421630859376	399.4912414550782	358.4154968261719	-752.3403930664064	61.30572509765626	359.2075500488281	-733.6670532226564	84.78524780273439	275.6350097656249	-803.0904541015627	30.12313652038575	303.8901672363281	-615.8043823242189	25.50630187988282	283.251708984375	-607.4346313476564	39.56594848632813	335.6703491210938	-650.0007934570314	24.00511741638184	384.7943420410157	-693.3653564453126	1443.000366210938	288.1403198242188	-749.1677856445314	1205.65576171875	302.2149658203124	-571.2551269531251	1358.621826171875	282.2141418457031	-501.1488342285158	1186.320678710938	285.2698059082031	-765.5864257812501	1222.468139648438	208.9429016113281	-739.6723022460939	1362.465087890625	208.2789459228515	-713.2491455078126	1365.016357421875	136.0159454345703	-663.3946533203126	1367.584228515625	104.6711425781249	-753.6940307617189	1056.405029296875	66.25280761718743	-764.5812377929689	1049.47314453125	147.5482788085937	-782.3369140625002	1046.6064453125	99.3883972167968	-704.5964355468751	802.9432373046877	84.83542633056634	-760.6620483398439	813.623718261719	30.37411880493156	-698.3236694335939	709.5502929687501	73.15003204345696	-788.531921386719	733.9028320312501	35.72461700439444	-759.8035278320314	1233.251708984375	399.7958679199219	-731.3256225585939	1362.041870117188	392.8117980957031	-680.3761596679689	1383.14111328125	456.5598449707032	-636.6828613281252	1386.777587890625	474.8957519531251	-626.0423583984377	1074.895141601563	578.390625	-671.2622680664065	1054.948974609375	506.6144714355469	-664.6569824218752	1040.790405273438	559.3268432617188	-479.082733154297	857.4385986328127	538.8421630859375	-521.1756591796877	850.7608642578127	606.0847778320312	-435.062713623047	786.2752685546877	542.0508422851564	-502.5214843750002	777.5273437500002	615.9058837890625	
50	0.49	-536.2982788085939	919.8621826171877	182.0325012207031	-737.8407592773439	991.974304199219	253.9432830810547	-737.0885009765626	1000.516784667969	334.0053100585937	-551.4072875976564	939.8975830078127	437.1916503906251	-588.5415039062501	893.713073730469	113.8486251831054	-466.0623168945314	484.4470520019532	156.8292083740234	-460.2747497558595	466.4116516113282	278.6142272949219	-478.5787963867189	419.1429443359376	154.2588653564453	-425.1673583984376	411.968719482422	209.3594818115234	-491.1757812500001	75.7500457763672	187.314208984375	-468.2379150390627	98.39894866943362	266.0319213867188	-534.9141235351564	35.58239746093751	241.3399047851562	-350.8228149414064	48.98394012451173	253.1419677734375	-355.1181945800782	62.46508026123048	204.7346038818359	-385.921356201172	39.04543685913087	166.3110961914062	-622.4729614257815	885.3195800781252	492.4410705566407	-656.2156372070314	471.4718017578126	416.5957946777344	-670.6549682617189	477.4465942382814	283.24462890625	-690.0795898437501	407.644744873047	412.8574829101563	-632.5212402343751	398.6229858398439	358.3558654785156	-752.1163330078126	61.57382965087892	359.0870971679687	-733.3580932617189	84.93289184570314	275.3857116699218	-802.9638671875002	30.52217292785645	303.7299804687499	-615.7449951171876	25.50872230529786	283.3016052246094	-607.3387451171876	39.51097869873048	335.7213439941406	-650.0085449218751	23.95592689514161	384.8224792480469	-684.6309814453126	1441.867065429688	288.3181762695312	-740.6029052734376	1204.60107421875	301.9145507812499	-562.5085449218751	1357.426635742188	282.4009704589844	-492.567108154297	1184.91357421875	285.3726806640625	-757.0429077148439	1221.545776367188	209.0272979736328	-730.8520507812501	1361.51123046875	208.3926086425781	-704.4243164062501	1364.10986328125	136.1652679443359	-654.6115112304689	1366.644165039063	104.7862701416015	-747.3861083984376	1056.230590820313	67.12030029296868	-757.8265991210939	1049.48681640625	148.4970703124999	-775.9373168945315	1046.671264648438	100.4050521850585	-700.2034301757814	802.4284667968752	85.78053283691399	-756.4309082031251	813.451599121094	31.61280441284171	-694.8674926757814	708.9007568359376	74.45452880859368	-785.0020141601565	733.9400024414064	37.37558364868155	-751.2395629882814	1232.158203125	399.7798156738281	-722.6774902343751	1360.8984375	392.96630859375	-671.6687622070314	1381.8818359375	456.7353210449219	-628.0683593750002	1385.499145507813	475.1091613769532	-616.0935058593752	1073.658813476563	578.496337890625	-661.5429687500002	1053.492919921875	506.9200439453126	-654.6950683593752	1039.292846679688	559.5302734375	-467.9684143066408	857.211364746094	538.1363525390625	-509.8630371093752	850.0764770507815	605.4483032226562	-423.4497985839845	786.3692016601565	541.0606079101564	-490.6851196289064	776.940124511719	615.028564453125	
51	0.5	-527.3413085937501	918.5504150390627	182.001480102539	-729.1572265625001	990.7210083007815	253.2281341552734	-728.7868041992189	999.3514404296877	333.2091064453124	-543.4167480468751	938.6006469726565	437.2601318359376	-579.2891845703126	892.1662597656252	113.6562194824218	-457.8800659179689	482.9301147460939	158.5921630859375	-453.152069091797	464.7008361816407	280.591552734375	-467.9832153320314	417.6744079589845	155.7931365966797	-413.7984008789064	412.6380004882814	210.9747772216797	-462.3848266601564	73.8413543701172	187.6739807128906	-440.1934204101564	97.41184997558597	266.2315063476562	-504.0227355957033	31.45456695556641	241.6929016113281	-320.4518432617189	53.17132568359376	252.6976013183594	-325.3948059082032	66.54833221435548	204.3843688964844	-355.6493530273438	41.84110260009766	165.9790649414062	-614.873962402344	884.4163818359377	492.2828063964844	-652.0025024414064	470.980682373047	416.5243835449219	-666.2332763671876	477.1261291503907	283.1603698730469	-686.5062866210939	407.4195251464845	412.7360839843751	-629.0554199218751	397.7199096679689	358.3324584960938	-751.8668823242189	61.89205169677736	358.9777221679687	-732.9940795898439	85.11741638183595	275.1635742187499	-802.833923339844	31.00656890869141	303.5789184570312	-615.7008056640626	25.50535011291505	283.345458984375	-607.2479248046876	39.44705963134766	335.7611083984375	-650.0285034179689	23.90955924987793	384.8477172851563	-675.8884887695314	1440.631958007813	288.4319152832031	-732.0051879882814	1203.440185546875	301.5183105468749	-553.7503051757814	1356.142700195313	282.5242309570312	-483.967987060547	1183.43896484375	285.37548828125	-748.4638671875001	1220.537109375	209.0113830566406	-722.0068969726564	1360.467407226563	208.4168548583984	-695.5572509765626	1363.119140625	136.2284698486328	-645.7994995117189	1365.61865234375	104.8213272094726	-740.8125610351564	1055.924438476563	67.84389495849602	-750.8571777343751	1049.35693359375	149.2897796630859	-769.2879638671877	1046.575927734375	101.2672424316406	-695.4634399414064	801.8221435546877	86.66282653808587	-751.7163085937501	813.152282714844	32.72735977172843	-690.8432006835939	708.2201538085939	75.71895599365227	-780.954040527344	733.8390502929689	38.88619995117179	-742.6782226562501	1230.955078125	399.6674499511719	-714.0404052734376	1359.649536132813	393.0347290039062	-662.9837646484376	1380.507568359375	456.8378906250001	-619.425476074219	1384.097534179688	475.2262268066407	-606.2192993164065	1072.302368164063	578.4876098632812	-651.9082031250002	1051.941284179688	507.1122741699219	-644.8230590820315	1037.6884765625	559.6071166992188	-457.0439453125002	856.800476074219	537.3278808593751	-498.7202148437502	849.2480468750002	604.7193603515625	-412.0686035156252	786.2588500976565	539.9706420898439	-479.052459716797	776.2095336914065	614.0728759765625	
